<?xml version="1.0" encoding="utf-8"?>
<!-- Generator: Adobe Illustrator 21.0.2, SVG Export Plug-In . SVG Version: 6.00 Build 0)  -->
<svg version="1.1" id="Layer_1" xmlns="http://www.w3.org/2000/svg" xmlns:xlink="http://www.w3.org/1999/xlink" x="0px" y="0px"
	 viewBox="0 0 189 19" style="enable-background:new 0 0 189 19;" xml:space="preserve">
<style type="text/css">
	.st0{fill:#FFFFFF;}
	.st1{opacity:0.5;}
</style>
<g>
	<path class="st0" d="M66.2,14.5l-0.7-2.7h-4l-0.7,2.7h-2.5L62,3.5h2.8l4,11.1H66.2z M64.8,10c-0.7-2.4-1.2-3.7-1.2-4
		c-0.1-0.3-0.1-0.6-0.1-0.7C63.4,5.9,62.9,7.5,62,10H64.8z"/>
	<path class="st0" d="M79.9,14.5h-2.9l-4.9-8.4l0,0c0.1,1.5,0.1,2.5,0.1,3.1v5.2h-2.1V3.5h2.9l4.7,8.3l0,0c0-1.5,0-2.4,0-2.9V3.5
		h2.1V14.5z"/>
	<path class="st0" d="M89.4,14.5l-0.7-2.7h-4L84,14.5h-2.5l3.7-11.1H88l4,11.1H89.4z M88.1,10c-0.7-2.4-1.2-3.7-1.2-4
		c-0.3-0.4-0.3-0.6-0.3-0.9c-0.1,0.6-0.6,2.2-1.5,4.7h2.9V10z"/>
	<path class="st0" d="M103.2,14.5h-2.9l-4.9-8.4l0,0c0.1,1.5,0.1,2.5,0.1,3.1v5.2h-2.1V3.5h2.9l4.9,8.3l0,0
		c-0.1-1.5-0.1-2.5-0.1-3.1V3.5h2.1V14.5z"/>
	<path class="st0" d="M112.4,11.5c0,1-0.3,1.8-1,2.4c-0.7,0.6-1.8,0.9-2.9,0.9s-2.2-0.3-3.1-0.7v-2.2c0.7,0.3,1.3,0.6,1.9,0.7
		c0.4,0.1,1,0.1,1.5,0.1c0.4,0,0.9-0.1,1.2-0.3c0.3-0.1,0.4-0.4,0.4-0.9c0-0.1,0-0.4-0.1-0.6c-0.1-0.1-0.3-0.3-0.6-0.4
		s-0.7-0.4-1.5-0.7c-0.7-0.3-1.2-0.6-1.5-0.9c-0.3-0.3-0.6-0.6-0.7-1c-0.1-0.4-0.3-0.9-0.3-1.3c0-1,0.3-1.8,1-2.4
		c0.6-0.6,1.6-0.9,2.8-0.9c0.6,0,1.2,0,1.6,0.1c0.6,0.1,1,0.3,1.6,0.6L112,5.7c-0.6-0.3-1-0.4-1.5-0.4c-0.4-0.1-0.7-0.1-1.2-0.1
		c-0.4,0-0.7,0.1-1,0.3C108,5.6,108,5.9,108,6.1c0,0.1,0,0.4,0.1,0.6c0.1,0.1,0.3,0.3,0.4,0.4c0.1,0.1,0.7,0.4,1.5,0.7
		c1,0.4,1.8,1,2.1,1.5C112.1,10.1,112.4,10.7,112.4,11.5z"/>
	<path class="st0" d="M114.4,14.5V3.5h2.4v11.1H114.4z"/>
</g>
<g class="st1">
	<path class="st0" d="M5.9,4.1c-1.5,0-2.5,0.4-3.2,1.3C1.8,6.3,1.3,7.5,1.3,8.9c0,1.6,0.4,2.8,1.2,3.7S4.3,14,5.8,14
		c0.9,0,1.8-0.1,2.5-0.3v0.7c-0.7,0.1-1.6,0.3-2.7,0.3c-1.6,0-2.8-0.4-3.7-1.5s-1.3-2.4-1.3-4.1c0-1.2,0.1-2.1,0.6-2.9
		s1-1.5,1.8-1.9s1.8-0.7,2.8-0.7s2.1,0.1,2.9,0.6L8.4,4.7C7.5,4.2,6.8,4.1,5.9,4.1z"/>
	<path class="st0" d="M10.8,14.5V3.5h0.7v10.3h5.3v0.7H10.8z"/>
	<path class="st0" d="M24,10.7h-4.4l-1.5,3.8h-0.9l4.4-11.1h0.4l4.3,11.1h-0.9L24,10.7z M19.8,10h4l-1.5-4c-0.1-0.3-0.3-0.7-0.4-1.3
		c-0.1,0.4-0.3,0.9-0.4,1.3L19.8,10z"/>
	<path class="st0" d="M28.7,9.7v4.9H28V3.5h2.7c1.3,0,2.4,0.3,3.1,0.7c0.6,0.4,1,1.3,1,2.2c0,0.7-0.1,1.3-0.6,1.9
		c-0.4,0.4-1,0.9-1.8,1l2.9,5h-0.9l-2.8-4.9h-2.9V9.7z M28.7,9.1h2.1c0.9,0,1.6-0.1,2.2-0.6c0.4-0.4,0.7-1,0.7-1.8
		c0-0.9-0.3-1.5-0.7-1.8c-0.4-0.4-1.3-0.6-2.5-0.6h-1.8C28.7,4.4,28.7,9.1,28.7,9.1z"/>
	<path class="st0" d="M37.1,14.5V3.5h0.7v11.1H37.1z"/>
	<path class="st0" d="M46.3,10.7h-4.4l-1.5,3.8h-0.9l4.4-11.1h0.4l4.3,11.1h-0.9L46.3,10.7z M42.2,10h4l-1.5-4
		c-0.1-0.3-0.3-0.7-0.4-1.3c-0.1,0.4-0.3,0.9-0.4,1.3L42.2,10z"/>
	<path class="st0" d="M58.2,14.5h-0.7V9.1H51v5.5h-0.7V3.5H51v4.9h6.5V3.5h0.7V14.5z"/>
</g>
</svg>
