<?xml version="1.0" encoding="utf-8"?>
<!-- Generator: Adobe Illustrator 21.0.2, SVG Export Plug-In . SVG Version: 6.00 Build 0)  -->
<svg version="1.1" id="Layer_1" xmlns="http://www.w3.org/2000/svg" xmlns:xlink="http://www.w3.org/1999/xlink" x="0px" y="0px"
	 viewBox="0 0 304 86" style="enable-background:new 0 0 304 86;" xml:space="preserve">
<style type="text/css">
	.st0{fill:#269075;}
	.st1{enable-background:new    ;}
	.st2{fill:#808080;}
</style>
<path class="st0" d="M33.8,85.3l-1.6-5.9c2.8-2.1,5-5.8,5.9-8.3c-2.2,0.7-4.7,2.1-7.4,2.9L22,43.3c1.5-0.2,3-0.3,4.6-0.4
	c10-0.2,18.1,2.8,18.1,2.8c1.1,3.3,1.7,6.9,1.8,10.7C46.6,68.2,41.3,80.8,33.8,85.3z M36.8,60.1c-2-0.5-4.2,1.3-5.1,2.6
	c1.3,0,2.8,0.2,4.3,0.6c1.6,0.4,3,1,4.2,1.7C40,63.3,38.8,60.6,36.8,60.1z M26.4,74.4c-1.5,0.2-3,0.3-4.6,0.4
	c-9.9,0.2-18-2.8-18-2.8C2.7,68.7,2.1,65.1,2,61.3C1.8,49.5,7.1,37,14.6,32.5l1.6,5.9c-2.8,2.1-4.9,5.8-5.8,8.2
	c2.2-0.7,4.7-2.1,7.3-2.8L26.4,74.4z M12.4,54.5c-1.6-0.4-3-1-4.2-1.7c0.2,1.6,1.4,4.3,3.4,4.8c2,0.5,4.2-1.3,5.1-2.6
	C15.3,55.1,13.9,54.9,12.4,54.5z"/>
<g class="st1">
	<path class="st0" d="M83.9,47.7h-9.9v26.8h-2.4V47.7h-9.9v-2.1h22.2V47.7z"/>
	<path class="st0" d="M91.6,74.4h-2.4V45.6h2.4V74.4z"/>
	<path class="st0" d="M102.6,45.6L113.2,71l10.7-25.4h3.2v28.8h-2.4V61.9l0.2-12.9l-10.7,25.4h-1.9l-10.7-25.3l0.2,12.7v12.6h-2.4
		V45.6H102.6z"/>
	<path class="st0" d="M134.4,74.4V45.6h8.5c3.1,0,5.4,0.6,7,1.9c1.6,1.3,2.4,3.2,2.4,5.6c0,1.5-0.4,2.8-1.2,3.9
		c-0.8,1.1-1.9,1.9-3.3,2.4c1.7,0.4,3,1.2,4,2.5c1,1.3,1.5,2.8,1.5,4.4c0,2.5-0.8,4.5-2.5,6s-3.9,2.1-6.9,2.1H134.4z M136.9,58.5
		h6.6c2,0,3.6-0.5,4.7-1.4c1.1-0.9,1.7-2.3,1.7-4c0-1.8-0.6-3.2-1.7-4.1c-1.2-0.9-2.9-1.3-5.2-1.3h-6.1V58.5z M136.9,60.6v11.8h7.3
		c2.1,0,3.7-0.5,5-1.6s1.8-2.5,1.8-4.4c0-1.8-0.6-3.2-1.8-4.2c-1.2-1-2.8-1.6-4.8-1.6H136.9z"/>
	<path class="st0" d="M179.1,45.6v19.7c0,1.9-0.4,3.6-1.3,5.1c-0.8,1.4-2,2.5-3.6,3.3c-1.5,0.8-3.3,1.2-5.3,1.2
		c-3,0-5.5-0.8-7.3-2.5c-1.8-1.7-2.8-3.9-2.8-6.9V45.6h2.4v19.5c0,2.4,0.7,4.3,2.1,5.6c1.4,1.3,3.3,2,5.6,2s4.3-0.7,5.6-2
		s2.1-3.2,2.1-5.6V45.6H179.1z"/>
	<path class="st0" d="M206.3,65.4c-0.3,3-1.4,5.4-3.3,7c-1.8,1.6-4.3,2.4-7.4,2.4c-2.1,0-4-0.5-5.7-1.6s-2.9-2.6-3.8-4.5
		c-0.9-2-1.4-4.2-1.4-6.7v-3.7c0-2.6,0.4-4.8,1.3-6.8c0.9-2,2.2-3.5,3.9-4.6c1.7-1.1,3.6-1.6,5.8-1.6c3.1,0,5.5,0.8,7.3,2.5
		s2.8,4,3.1,6.9h-2.5c-0.6-4.9-3.3-7.3-8-7.3c-2.6,0-4.7,1-6.2,2.9c-1.5,2-2.3,4.7-2.3,8.1v3.5c0,3.3,0.8,6,2.3,8c1.5,2,3.6,3,6.1,3
		c2.5,0,4.5-0.6,5.8-1.8c1.3-1.2,2.1-3,2.4-5.5H206.3z"/>
	<path class="st0" d="M231.2,47.7h-9.9v26.8h-2.4V47.7H209v-2.1h22.2V47.7z"/>
	<path class="st0" d="M256.6,61.6c0,2.7-0.5,5-1.4,7s-2.2,3.5-3.9,4.6s-3.7,1.6-5.9,1.6c-3.4,0-6.1-1.2-8.2-3.6
		c-2.1-2.4-3.1-5.7-3.1-9.7v-3c0-2.6,0.5-5,1.4-7c0.9-2,2.2-3.6,3.9-4.7c1.7-1.1,3.7-1.6,5.9-1.6c2.2,0,4.2,0.5,5.9,1.6
		s3,2.6,3.9,4.5c0.9,2,1.4,4.2,1.4,6.8V61.6z M254.2,58.4c0-3.5-0.8-6.2-2.4-8.2c-1.6-2-3.7-2.9-6.5-2.9c-2.7,0-4.8,1-6.4,3
		c-1.6,2-2.4,4.7-2.4,8.3v3c0,3.4,0.8,6.1,2.4,8.1s3.7,3,6.5,3c2.8,0,4.9-1,6.5-3c1.5-2,2.3-4.7,2.3-8.2V58.4z"/>
	<path class="st0" d="M284,61.6c0,2.7-0.5,5-1.4,7s-2.2,3.5-3.9,4.6s-3.7,1.6-5.9,1.6c-3.4,0-6.1-1.2-8.2-3.6
		c-2.1-2.4-3.1-5.7-3.1-9.7v-3c0-2.6,0.5-5,1.4-7c0.9-2,2.2-3.6,3.9-4.7c1.7-1.1,3.7-1.6,5.9-1.6c2.2,0,4.2,0.5,5.9,1.6
		s3,2.6,3.9,4.5c0.9,2,1.4,4.2,1.4,6.8V61.6z M281.6,58.4c0-3.5-0.8-6.2-2.4-8.2c-1.6-2-3.7-2.9-6.5-2.9c-2.7,0-4.8,1-6.4,3
		c-1.6,2-2.4,4.7-2.4,8.3v3c0,3.4,0.8,6.1,2.4,8.1s3.7,3,6.5,3c2.8,0,4.9-1,6.5-3c1.5-2,2.3-4.7,2.3-8.2V58.4z"/>
</g>
<g class="st1">
	<path class="st2" d="M7.9,17.1l-1.4,8H4.8L8.3,5.4l6.4,0C16.6,5.4,18,6,19,7c1,1,1.4,2.4,1.3,4.2c-0.2,1.8-0.9,3.3-2.2,4.3
		c-1.3,1-3,1.6-5.1,1.6L7.9,17.1z M8.1,15.7l4.8,0c1.6,0,2.9-0.4,3.9-1.2c1-0.8,1.6-1.9,1.8-3.3c0.1-1.3-0.1-2.4-0.9-3.2
		S16,6.8,14.7,6.8l-5,0L8.1,15.7z"/>
	<path class="st2" d="M28.4,25.4c-1.8,0-3.3-0.7-4.4-1.9c-1.1-1.2-1.7-2.9-1.8-5c0-0.7,0-1.4,0.1-2.2l0.3-1.9c0.4-2.8,1.4-5,3-6.8
		c1.6-1.8,3.6-2.7,6-2.6c1.2,0,2.3,0.3,3.2,0.9c0.9,0.6,1.6,1.4,2.1,2.5c0.5,1.1,0.8,2.3,0.8,3.6c0,0.8,0,1.5-0.1,2.3l-0.3,2.1
		c-0.3,1.9-0.9,3.5-1.8,4.9c-0.9,1.4-1.9,2.4-3.1,3.1C31.2,25.1,29.9,25.4,28.4,25.4z M36,14.1c0.1-0.6,0.1-1.1,0.1-1.7
		c0-1.1-0.2-2.1-0.5-3c-0.3-0.9-0.9-1.6-1.6-2.1c-0.7-0.5-1.5-0.7-2.5-0.8c-1.8,0-3.4,0.6-4.6,1.9c-1.3,1.3-2.1,3.2-2.5,5.4
		c-0.3,1.9-0.5,3.2-0.5,4.1c0,1.8,0.4,3.3,1.2,4.3c0.8,1,1.9,1.6,3.4,1.6c1.9,0,3.5-0.7,4.8-2.1c1.3-1.4,2.1-3.3,2.4-5.7L36,14.1z"
		/>
	<path class="st2" d="M44.5,19.8l0.1,2.9l1.2-2.9l6.4-14.5h1.5L55.5,20l0.2,2.8l1.1-3.1l5.7-14.4h1.7l-8,19.8h-1.6L52.8,9.6
		l-0.1-1.8l-0.8,1.9L45,25.1h-1.6L41.6,5.4h1.7L44.5,19.8z"/>
	<path class="st2" d="M76.5,15.6h-9l-1.4,8.1h10.3l-0.2,1.4h-12l3.4-19.8h11.9l-0.3,1.4H69.1l-1.3,7.5h9L76.5,15.6z"/>
	<path class="st2" d="M88.4,16.9h-5.6l-1.4,8.2h-1.7l3.4-19.8l5.8,0c2,0,3.5,0.5,4.6,1.5c1.1,1,1.5,2.4,1.3,4.2
		c-0.1,1.3-0.6,2.5-1.5,3.4c-0.9,1-2,1.7-3.4,2.1l3.4,8.3l0,0.2h-1.8L88.4,16.9z M83,15.5l4.9,0c1.4,0,2.6-0.4,3.6-1.2
		c1-0.8,1.6-1.9,1.7-3.2c0.2-1.3-0.1-2.3-0.8-3.1c-0.7-0.8-1.8-1.2-3.2-1.2l-4.7,0L83,15.5z"/>
	<path class="st2" d="M109.2,15.6h-9l-1.4,8.1h10.3l-0.2,1.4H97l3.4-19.8h11.9L112,6.8h-10.2l-1.3,7.5h9L109.2,15.6z"/>
	<path class="st2" d="M112.4,25.1l3.4-19.8l5.1,0c1.5,0,2.9,0.4,4,1.2c1.1,0.8,1.9,1.9,2.4,3.2c0.5,1.4,0.6,2.9,0.4,4.6l-0.2,1.6
		c-0.4,2.7-1.5,4.9-3.3,6.6c-1.8,1.7-3.9,2.5-6.5,2.5H112.4z M117.3,6.8l-2.9,16.9l3.5,0c1.4,0,2.6-0.3,3.8-0.9
		c1.1-0.6,2.1-1.5,2.8-2.7c0.7-1.2,1.2-2.5,1.5-3.9c0.2-1.5,0.4-2.5,0.4-3s0-1.1-0.1-1.6c-0.2-1.4-0.8-2.6-1.7-3.4
		c-0.9-0.9-2.1-1.3-3.5-1.3L117.3,6.8z"/>
	<path class="st2" d="M136.9,25.1l3.4-19.8l5.6,0c1.9,0,3.3,0.5,4.3,1.4s1.4,2.1,1.2,3.7c-0.1,1-0.5,1.9-1.1,2.7
		c-0.7,0.8-1.5,1.3-2.6,1.7c0.9,0.3,1.7,0.9,2.2,1.7c0.5,0.8,0.7,1.8,0.7,2.9c-0.1,1.7-0.8,3.1-2.1,4.1c-1.3,1-2.9,1.5-4.9,1.5
		H136.9z M140.2,15.6l-1.4,8.1l4.7,0c1.4,0,2.6-0.4,3.6-1.1c1-0.7,1.5-1.8,1.7-3.1c0.1-1.1-0.1-2.1-0.8-2.7s-1.6-1-2.8-1.1
		L140.2,15.6z M140.5,14.2l4.3,0c1.4,0,2.6-0.4,3.4-1.1s1.4-1.6,1.5-2.8c0.2-2.3-1.1-3.5-3.9-3.6l-4.1,0L140.5,14.2z"/>
	<path class="st2" d="M160,16.1l7.7-10.7h2l-9.1,12.4l-1.3,7.4h-1.7l1.3-7.5l-4.8-12.2h1.9L160,16.1z"/>
</g>
</svg>
